<svg width="42" height="37" viewBox="0 0 42 37" fill="none" xmlns="http://www.w3.org/2000/svg">
<g clip-path="url(#clip0_233_10)">
<path d="M39.1289 37H2.87109C1.28789 37 0 35.8654 0 34.4707V10.623C0 9.22832 1.28789 8.09375 2.87109 8.09375H32.4926V8.81641H2.87109C1.73906 8.81641 0.820312 9.62578 0.820312 10.623V34.4707C0.820312 35.468 1.73906 36.2773 2.87109 36.2773H39.1289C40.2609 36.2773 41.1797 35.468 41.1797 34.4707V10.623C41.1797 9.62578 40.2609 8.81641 39.1289 8.81641H37.4145V8.09375H39.1289C40.7121 8.09375 42 9.22832 42 10.623V34.4707C42 35.8654 40.7121 37 39.1289 37Z" fill="white"/>
<path d="M38.3086 34.1094H6.97266C6.74297 34.1094 6.5625 33.9504 6.5625 33.748V11.3457C6.5625 11.1434 6.74297 10.9844 6.97266 10.9844H32.3777L37.5375 0.982813C37.8492 0.383008 38.5219 0 39.2684 0C39.9164 0 40.5152 0.289063 40.868 0.766016C41.2207 1.2502 41.2699 1.85 40.9992 2.37031L36.5613 10.9844H38.3086C38.5383 10.9844 38.7188 11.1434 38.7188 11.3457V33.748C38.7188 33.9504 38.5383 34.1094 38.3086 34.1094ZM7.38281 33.3867H37.8984V11.707H35.9215C35.782 11.707 35.6508 11.642 35.577 11.5408C35.5031 11.4396 35.4867 11.3096 35.5523 11.1939L40.2609 2.0668C40.4168 1.76328 40.3922 1.43086 40.1871 1.15625C39.982 0.881641 39.6539 0.71543 39.2766 0.71543C38.85 0.71543 38.4645 0.932227 38.2922 1.27188L29.925 17.4883L29.7363 20.1115L31.8937 18.276L34.8059 12.632L35.5523 12.9283L32.6074 18.6373C32.5828 18.6807 32.5582 18.7168 32.5172 18.7457L29.5477 21.275C29.4246 21.3762 29.2441 21.4051 29.0883 21.34C28.9324 21.275 28.8422 21.1377 28.8504 20.9932L29.1047 17.3727C29.1047 17.3293 29.1211 17.2859 29.1375 17.2426L32.0004 11.6926H7.38281V33.3867ZM3.69141 24.3535C2.55937 24.3535 1.64062 23.5441 1.64062 22.5469C1.64062 21.5496 2.55937 20.7402 3.69141 20.7402C4.82344 20.7402 5.74219 21.5496 5.74219 22.5469C5.74219 23.5441 4.82344 24.3535 3.69141 24.3535ZM3.69141 21.4629C3.01055 21.4629 2.46094 21.9471 2.46094 22.5469C2.46094 23.1467 3.01055 23.6309 3.69141 23.6309C4.37227 23.6309 4.92188 23.1467 4.92188 22.5469C4.92188 21.9471 4.37227 21.4629 3.69141 21.4629ZM3.69141 19.6562C2.78906 19.6562 2.05078 19.0059 2.05078 18.2109V14.5977C2.05078 13.8027 2.78906 13.1523 3.69141 13.1523C4.59375 13.1523 5.33203 13.8027 5.33203 14.5977V18.2109C5.33203 19.0059 4.59375 19.6562 3.69141 19.6562ZM3.69141 13.875C3.24023 13.875 2.87109 14.2002 2.87109 14.5977V18.2109C2.87109 18.6084 3.24023 18.9336 3.69141 18.9336C4.14258 18.9336 4.51172 18.6084 4.51172 18.2109V14.5977C4.51172 14.2002 4.14258 13.875 3.69141 13.875Z" fill="white"/>
<path d="M4.92188 16.043H2.46094V16.7656H4.92188V16.043Z" fill="white"/>
<path d="M3.69141 31.9414C2.78906 31.9414 2.05078 31.291 2.05078 30.4961V26.8828C2.05078 26.0879 2.78906 25.4375 3.69141 25.4375C4.59375 25.4375 5.33203 26.0879 5.33203 26.8828V30.4961C5.33203 31.291 4.59375 31.9414 3.69141 31.9414ZM3.69141 26.1602C3.24023 26.1602 2.87109 26.4854 2.87109 26.8828V30.4961C2.87109 30.8936 3.24023 31.2188 3.69141 31.2188C4.14258 31.2188 4.51172 30.8936 4.51172 30.4961V26.8828C4.51172 26.4854 4.14258 26.1602 3.69141 26.1602Z" fill="white"/>
<path d="M4.92188 28.3281H2.46094V29.0508H4.92188V28.3281Z" fill="white"/>
<path d="M32.4001 18.1658L29.683 17.0748L29.3428 17.7324L32.0599 18.8233L32.4001 18.1658Z" fill="white"/>
<path d="M25.2082 31.0381C24.9047 31.0381 24.593 31.0165 24.2813 30.9731C21.8285 30.6262 19.8434 28.9713 19.4496 26.9479C19.0805 25.0473 20.1797 23.1612 21.2461 21.3401C22.3699 19.4106 23.4363 17.5823 22.3863 16.1731C21.3937 14.8506 19.1461 14.1786 16.7754 14.5038C14.5113 14.8145 12.8707 15.9419 12.3785 17.5028C11.8863 19.071 12.5016 20.3428 13.1578 21.6942C14.0602 23.5442 14.9953 25.4592 13.0676 28.162L12.3703 27.779C14.0684 25.4014 13.2645 23.7393 12.4031 21.9833C11.7223 20.5813 11.0086 19.1288 11.5828 17.3149C12.1652 15.4649 14.0602 14.1497 16.6441 13.7883C19.3184 13.4198 21.9023 14.2147 23.0672 15.7684C24.3879 17.5317 23.1574 19.6346 21.9762 21.6653C20.9754 23.3852 19.9418 25.1629 20.2617 26.8251C20.598 28.5522 22.3043 29.9614 24.4125 30.2577C26.3402 30.5323 28.0301 29.8024 28.9242 28.3065C30.0234 26.4637 29.4902 25.4809 28.9324 24.4475C28.391 23.4575 27.8414 22.4313 28.916 20.8487L29.6215 21.2245C28.7684 22.4747 29.1703 23.2045 29.6707 24.1368C30.2367 25.1846 30.9422 26.4854 29.6461 28.6461C28.7191 30.1782 27.1031 31.0381 25.2082 31.0381Z" fill="white"/>
</g>
<defs>
<clipPath id="clip0_233_10">
<rect width="42" height="37" fill="white"/>
</clipPath>
</defs>
</svg>
